<svg width="35" height="17" viewBox="0 0 35 17" fill="none" xmlns="http://www.w3.org/2000/svg">
<path d="M33.0159 16.0195C32.6149 16.0202 32.2242 15.8906 31.9014 15.6499L17.7961 5.11998L3.69087 15.6499C3.29094 15.949 2.78996 16.0751 2.29815 16.0004C1.80634 15.9258 1.36397 15.6565 1.06837 15.2518C0.772775 14.8471 0.648154 14.3401 0.721925 13.8425C0.795697 13.3448 1.06182 12.8971 1.46175 12.598L16.6816 1.22459C17.0041 0.98296 17.3948 0.852539 17.7961 0.852539C18.1974 0.852539 18.5881 0.98296 18.9107 1.22459L34.1305 12.598C34.4483 12.835 34.684 13.1675 34.8039 13.5482C34.9238 13.9288 34.9218 14.338 34.7982 14.7174C34.6746 15.0968 34.4357 15.427 34.1157 15.6608C33.7956 15.8947 33.4107 16.0202 33.0159 16.0195Z" fill="white"/>
</svg>
